<mxfile host="Electron" modified="2025-03-30T01:56:27.801Z" agent="Mozilla/5.0 (Windows NT 10.0; Win64; x64) AppleWebKit/537.36 (KHTML, like Gecko) draw.io/24.6.1 Chrome/124.0.6367.207 Electron/30.0.6 Safari/537.36" etag="qXjyWbSUTlAeIoA7Ab69" version="24.6.1" type="device">
  <diagram name="第 1 页" id="2INLi2oEmi2-KvIr2Zpt">
    <mxGraphModel dx="4097" dy="2389" grid="1" gridSize="10" guides="1" tooltips="1" connect="1" arrows="1" fold="1" page="1" pageScale="1" pageWidth="3300" pageHeight="2339" math="0" shadow="0">
      <root>
        <mxCell id="0" />
        <mxCell id="1" parent="0" />
        <mxCell id="o_VwB3TaTQX98IR8ViMm-2" value="&lt;b style=&quot;font-size: 35px;&quot;&gt;输入账号、密码&lt;/b&gt;" style="rounded=1;whiteSpace=wrap;html=1;strokeWidth=2;" parent="1" vertex="1">
          <mxGeometry x="490" y="240" width="390" height="80" as="geometry" />
        </mxCell>
        <mxCell id="o_VwB3TaTQX98IR8ViMm-3" value="&lt;span style=&quot;font-size: 30px;&quot;&gt;&lt;b&gt;点击登录，向数据库发起查询&lt;/b&gt;&lt;/span&gt;" style="rounded=1;whiteSpace=wrap;html=1;strokeWidth=2;" parent="1" vertex="1">
          <mxGeometry x="490" y="360" width="390" height="80" as="geometry" />
        </mxCell>
        <mxCell id="o_VwB3TaTQX98IR8ViMm-5" value="" style="endArrow=classic;html=1;rounded=0;strokeWidth=4;" parent="1" edge="1">
          <mxGeometry width="50" height="50" relative="1" as="geometry">
            <mxPoint x="680" y="320" as="sourcePoint" />
            <mxPoint x="680" y="360" as="targetPoint" />
          </mxGeometry>
        </mxCell>
        <mxCell id="o_VwB3TaTQX98IR8ViMm-6" value="&lt;font style=&quot;font-size: 30px;&quot;&gt;&lt;b&gt;是否正确&lt;/b&gt;&lt;/font&gt;" style="rhombus;whiteSpace=wrap;html=1;strokeWidth=2;" parent="1" vertex="1">
          <mxGeometry x="560" y="520" width="240" height="200" as="geometry" />
        </mxCell>
        <mxCell id="o_VwB3TaTQX98IR8ViMm-7" value="" style="endArrow=classic;html=1;rounded=0;strokeWidth=4;entryX=0.5;entryY=0;entryDx=0;entryDy=0;" parent="1" target="o_VwB3TaTQX98IR8ViMm-6" edge="1">
          <mxGeometry width="50" height="50" relative="1" as="geometry">
            <mxPoint x="679.76" y="440" as="sourcePoint" />
            <mxPoint x="679.76" y="480" as="targetPoint" />
          </mxGeometry>
        </mxCell>
        <mxCell id="o_VwB3TaTQX98IR8ViMm-8" value="" style="endArrow=classic;html=1;rounded=0;strokeWidth=4;" parent="1" edge="1">
          <mxGeometry width="50" height="50" relative="1" as="geometry">
            <mxPoint x="800" y="620" as="sourcePoint" />
            <mxPoint x="1080" y="400" as="targetPoint" />
            <Array as="points">
              <mxPoint x="960" y="620" />
              <mxPoint x="960" y="520" />
              <mxPoint x="960" y="400" />
            </Array>
          </mxGeometry>
        </mxCell>
        <mxCell id="o_VwB3TaTQX98IR8ViMm-9" value="&lt;font style=&quot;font-size: 30px;&quot;&gt;NO&lt;/font&gt;" style="text;html=1;align=center;verticalAlign=middle;whiteSpace=wrap;rounded=0;" parent="1" vertex="1">
          <mxGeometry x="840" y="580" width="60" height="40" as="geometry" />
        </mxCell>
        <mxCell id="o_VwB3TaTQX98IR8ViMm-10" value="&lt;span style=&quot;font-size: 30px;&quot;&gt;&lt;b&gt;登录成功，进入主界面&lt;/b&gt;&lt;/span&gt;" style="rounded=1;whiteSpace=wrap;html=1;strokeWidth=2;" parent="1" vertex="1">
          <mxGeometry x="480" y="760" width="390" height="80" as="geometry" />
        </mxCell>
        <mxCell id="o_VwB3TaTQX98IR8ViMm-14" value="" style="endArrow=classic;html=1;rounded=0;strokeWidth=4;" parent="1" edge="1">
          <mxGeometry width="50" height="50" relative="1" as="geometry">
            <mxPoint x="679.58" y="720" as="sourcePoint" />
            <mxPoint x="679.58" y="760" as="targetPoint" />
          </mxGeometry>
        </mxCell>
        <mxCell id="o_VwB3TaTQX98IR8ViMm-17" value="&lt;font style=&quot;font-size: 30px;&quot;&gt;YES&lt;/font&gt;" style="text;html=1;align=center;verticalAlign=middle;whiteSpace=wrap;rounded=0;" parent="1" vertex="1">
          <mxGeometry x="680" y="720" width="90" height="40" as="geometry" />
        </mxCell>
        <mxCell id="I9zoFRqUv0C9m1MELCV4-1" value="&lt;span style=&quot;font-size: 30px;&quot;&gt;&lt;b&gt;提示，账户/密码错误&lt;/b&gt;&lt;/span&gt;" style="rounded=1;whiteSpace=wrap;html=1;strokeWidth=2;" vertex="1" parent="1">
          <mxGeometry x="1080" y="360" width="390" height="80" as="geometry" />
        </mxCell>
        <mxCell id="I9zoFRqUv0C9m1MELCV4-2" value="" style="endArrow=classic;html=1;rounded=0;strokeWidth=4;entryX=1;entryY=0.5;entryDx=0;entryDy=0;" edge="1" parent="1" target="o_VwB3TaTQX98IR8ViMm-2">
          <mxGeometry width="50" height="50" relative="1" as="geometry">
            <mxPoint x="1280" y="360" as="sourcePoint" />
            <mxPoint x="1280.24" y="440" as="targetPoint" />
            <Array as="points">
              <mxPoint x="1280" y="280" />
            </Array>
          </mxGeometry>
        </mxCell>
        <mxCell id="I9zoFRqUv0C9m1MELCV4-3" value="" style="endArrow=classic;html=1;rounded=0;strokeWidth=4;" edge="1" parent="1">
          <mxGeometry width="50" height="50" relative="1" as="geometry">
            <mxPoint x="960" y="619.43" as="sourcePoint" />
            <mxPoint x="1080" y="619.43" as="targetPoint" />
          </mxGeometry>
        </mxCell>
        <mxCell id="I9zoFRqUv0C9m1MELCV4-4" value="&lt;span style=&quot;font-size: 30px;&quot;&gt;&lt;b&gt;提示，账户不存在&lt;/b&gt;&lt;/span&gt;" style="rounded=1;whiteSpace=wrap;html=1;strokeWidth=2;" vertex="1" parent="1">
          <mxGeometry x="1080" y="560" width="390" height="80" as="geometry" />
        </mxCell>
        <mxCell id="I9zoFRqUv0C9m1MELCV4-5" value="" style="endArrow=classic;html=1;rounded=0;strokeWidth=4;" edge="1" parent="1">
          <mxGeometry width="50" height="50" relative="1" as="geometry">
            <mxPoint x="1274.6599999999999" y="640" as="sourcePoint" />
            <mxPoint x="1275" y="680" as="targetPoint" />
          </mxGeometry>
        </mxCell>
        <mxCell id="I9zoFRqUv0C9m1MELCV4-6" value="&lt;span style=&quot;font-size: 30px;&quot;&gt;&lt;b&gt;进入注册页面&lt;/b&gt;&lt;/span&gt;" style="rounded=1;whiteSpace=wrap;html=1;strokeWidth=2;" vertex="1" parent="1">
          <mxGeometry x="1070" y="680" width="390" height="80" as="geometry" />
        </mxCell>
        <mxCell id="I9zoFRqUv0C9m1MELCV4-7" value="" style="endArrow=classic;html=1;rounded=0;strokeWidth=4;" edge="1" parent="1">
          <mxGeometry width="50" height="50" relative="1" as="geometry">
            <mxPoint x="1274.7099999999998" y="760" as="sourcePoint" />
            <mxPoint x="1275" y="800" as="targetPoint" />
          </mxGeometry>
        </mxCell>
        <mxCell id="I9zoFRqUv0C9m1MELCV4-8" value="&lt;span style=&quot;font-size: 30px;&quot;&gt;&lt;b&gt;输入账户密码和个人信息&lt;/b&gt;&lt;/span&gt;" style="rounded=1;whiteSpace=wrap;html=1;strokeWidth=2;" vertex="1" parent="1">
          <mxGeometry x="1070" y="800" width="390" height="80" as="geometry" />
        </mxCell>
        <mxCell id="I9zoFRqUv0C9m1MELCV4-9" value="" style="endArrow=classic;html=1;rounded=0;strokeWidth=4;" edge="1" parent="1">
          <mxGeometry width="50" height="50" relative="1" as="geometry">
            <mxPoint x="1274.7099999999998" y="880" as="sourcePoint" />
            <mxPoint x="1275" y="920" as="targetPoint" />
          </mxGeometry>
        </mxCell>
        <mxCell id="I9zoFRqUv0C9m1MELCV4-10" value="&lt;font style=&quot;font-size: 30px;&quot;&gt;&lt;b&gt;是否合理&lt;/b&gt;&lt;/font&gt;" style="rhombus;whiteSpace=wrap;html=1;strokeWidth=2;" vertex="1" parent="1">
          <mxGeometry x="1155" y="920" width="240" height="200" as="geometry" />
        </mxCell>
        <mxCell id="I9zoFRqUv0C9m1MELCV4-11" value="" style="endArrow=classic;html=1;rounded=0;strokeWidth=4;entryX=1;entryY=0.5;entryDx=0;entryDy=0;" edge="1" parent="1" target="I9zoFRqUv0C9m1MELCV4-8">
          <mxGeometry width="50" height="50" relative="1" as="geometry">
            <mxPoint x="1394.9999999999998" y="1020" as="sourcePoint" />
            <mxPoint x="1740" y="1020" as="targetPoint" />
            <Array as="points">
              <mxPoint x="1520" y="1020" />
              <mxPoint x="1520" y="840" />
              <mxPoint x="1470" y="840" />
            </Array>
          </mxGeometry>
        </mxCell>
        <mxCell id="I9zoFRqUv0C9m1MELCV4-12" value="&lt;font style=&quot;font-size: 30px;&quot;&gt;NO&lt;/font&gt;" style="text;html=1;align=center;verticalAlign=middle;whiteSpace=wrap;rounded=0;" vertex="1" parent="1">
          <mxGeometry x="1400" y="980" width="60" height="40" as="geometry" />
        </mxCell>
        <mxCell id="I9zoFRqUv0C9m1MELCV4-13" value="" style="endArrow=classic;html=1;rounded=0;strokeWidth=4;" edge="1" parent="1">
          <mxGeometry width="50" height="50" relative="1" as="geometry">
            <mxPoint x="1274.6599999999999" y="1120" as="sourcePoint" />
            <mxPoint x="1274.95" y="1160" as="targetPoint" />
          </mxGeometry>
        </mxCell>
        <mxCell id="I9zoFRqUv0C9m1MELCV4-14" value="&lt;span style=&quot;font-size: 30px;&quot;&gt;&lt;b&gt;向数据库中插入数据&lt;/b&gt;&lt;/span&gt;" style="rounded=1;whiteSpace=wrap;html=1;strokeWidth=2;" vertex="1" parent="1">
          <mxGeometry x="1090" y="1160" width="390" height="80" as="geometry" />
        </mxCell>
        <mxCell id="I9zoFRqUv0C9m1MELCV4-15" value="&lt;font style=&quot;font-size: 30px;&quot;&gt;YES&lt;/font&gt;" style="text;html=1;align=center;verticalAlign=middle;whiteSpace=wrap;rounded=0;" vertex="1" parent="1">
          <mxGeometry x="1270" y="1120" width="90" height="40" as="geometry" />
        </mxCell>
        <mxCell id="I9zoFRqUv0C9m1MELCV4-16" value="" style="endArrow=classic;html=1;rounded=0;strokeWidth=4;entryX=0;entryY=0.5;entryDx=0;entryDy=0;" edge="1" parent="1" target="o_VwB3TaTQX98IR8ViMm-2">
          <mxGeometry width="50" height="50" relative="1" as="geometry">
            <mxPoint x="1274.7099999999998" y="1240" as="sourcePoint" />
            <mxPoint x="440" y="280" as="targetPoint" />
            <Array as="points">
              <mxPoint x="1275" y="1320" />
              <mxPoint x="440" y="1320" />
              <mxPoint x="440" y="280" />
            </Array>
          </mxGeometry>
        </mxCell>
      </root>
    </mxGraphModel>
  </diagram>
</mxfile>
